# xmcd CD database file
#
# Track frame offsets:
#	150
#	17760
#	37037
#	58750
#	76202
#
# Disc length: 1266 seconds
#
# Revision: 2
# Processed by: cddbd v1.5.2PL0 Copyright (c) Steve Scherf et al.
# Submitted via: CDex 1.51
#
DISCID=3704f005
DTITLE=Lhasa - La Llorona (extraits)
DYEAR=1997
DGENRE=
TTITLE0=El Desierto
TTITLE1=De Cara a la Pared
TTITLE2=La Celestina
TTITLE3=Los Peces
TTITLE4=Froricanto
EXTD=YEAR: 1997
EXTT0=
EXTT1=
EXTT2=
EXTT3=
EXTT4=
PLAYORDER=
